<svg width="348" height="427" viewBox="0 0 348 427" fill="none" xmlns="http://www.w3.org/2000/svg">
<path d="M29.3989 127.121V373.499C29.3989 388.061 34.7387 401.737 44.0668 411.55C53.3519 421.389 66.2737 426.975 79.7971 426.999H269C282.527 426.975 295.449 421.389 304.73 411.55C314.058 401.737 319.398 388.061 319.398 373.499V127.121C337.941 122.199 349.956 104.285 347.476 85.2576C344.992 66.2343 328.785 52.0038 309.597 51.9999H258.398V39.5C258.457 28.9883 254.3 18.8946 246.859 11.4688C239.418 4.04696 229.308 -0.085844 218.797 9.32108e-05H130C119.488 -0.085844 109.379 4.04696 101.938 11.4688C94.4963 18.8946 90.3401 28.9883 90.3987 39.5V51.9999H39.1996C20.0122 52.0038 3.80519 66.2343 1.32082 85.2576C-1.15964 104.285 10.8559 122.199 29.3989 127.121V127.121ZM269 406.999H79.7971C62.6995 406.999 49.3988 392.311 49.3988 373.499V128H299.398V373.499C299.398 392.311 286.097 406.999 269 406.999ZM110.399 39.5C110.332 34.293 112.379 29.2813 116.074 25.6055C119.766 21.9297 124.789 19.9102 130 20H218.797C224.008 19.9102 229.031 21.9297 232.722 25.6055C236.418 29.2773 238.465 34.293 238.398 39.5V51.9999H110.399V39.5ZM39.1996 71.9999H309.597C319.539 71.9999 327.597 80.0584 327.597 89.9998C327.597 99.9412 319.539 108 309.597 108H39.1996C29.2582 108 21.1997 99.9412 21.1997 89.9998C21.1997 80.0584 29.2582 71.9999 39.1996 71.9999V71.9999Z" fill="#9B9B9B"/>
</svg>
