<svg width="512" height="512" viewBox="0 0 512 512" fill="none" xmlns="http://www.w3.org/2000/svg">
<g clip-path="url(#clip0)">
<path d="M453.332 512H58.668C26.3047 512 0 485.695 0 453.332V58.668C0 26.3047 26.3047 0 58.668 0H389.504C410.559 0 431.188 8.53516 446.059 23.4453L488.555 65.9414C503.68 81.0664 512 101.164 512 122.516V453.332C512 485.695 485.695 512 453.332 512V512ZM58.668 32C43.9688 32 32 43.9688 32 58.668V453.332C32 468.031 43.9688 480 58.668 480H453.332C468.031 480 480 468.031 480 453.332V122.516C480 109.695 475.008 97.6445 465.941 88.5742L423.445 46.0781C414.508 37.1211 402.156 32 389.504 32H58.668Z" fill="#9B9B9B"/>
<path d="M325.332 149.332H101.332C92.5 149.332 85.332 142.164 85.332 133.332V16C85.332 7.16797 92.5 0 101.332 0C110.164 0 117.332 7.16797 117.332 16V117.332H309.332V16C309.332 7.16797 316.5 0 325.332 0C334.164 0 341.332 7.16797 341.332 16V133.332C341.332 142.164 334.164 149.332 325.332 149.332Z" fill="#9B9B9B"/>
<path d="M256 416C203.07 416 160 372.93 160 320C160 267.07 203.07 224 256 224C308.93 224 352 267.07 352 320C352 372.93 308.93 416 256 416ZM256 256C220.715 256 192 284.715 192 320C192 355.285 220.715 384 256 384C291.285 384 320 355.285 320 320C320 284.715 291.285 256 256 256Z" fill="#9B9B9B"/>
</g>
<defs>
<clipPath id="clip0">
<rect width="512" height="512" fill="white"/>
</clipPath>
</defs>
</svg>
