<svg width="612" height="552" viewBox="0 0 612 552" fill="none" xmlns="http://www.w3.org/2000/svg">
<path d="M581.4 490.199H30.6C13.709 490.199 0 503.908 0 520.799C0 537.691 13.709 551.4 30.6 551.4H581.4C598.291 551.4 612 537.691 612 520.798C612 503.908 598.291 490.199 581.4 490.199ZM30.6 61.7991H581.4C598.291 61.7991 612 48.0911 612 31.1991C612 14.3071 598.291 0.599121 581.4 0.599121H30.6C13.709 0.600121 0 14.3081 0 31.2001C0 48.0911 13.709 61.7991 30.6 61.7991ZM581.4 245.399H30.6C13.709 245.399 0 259.108 0 276C0 292.892 13.709 306.6 30.6 306.6H581.4C598.291 306.6 612 292.891 612 276C612 259.109 598.291 245.399 581.4 245.399Z" fill="white"/>
</svg>
