<svg width="512" height="488" viewBox="0 0 512 488" fill="none" xmlns="http://www.w3.org/2000/svg">
<path d="M503.401 216.884L460.148 177.473V46.79C460.148 38.475 453.407 31.733 445.091 31.733H340.976C332.661 31.733 325.919 38.474 325.919 46.79V55.164L273.683 7.56704C263.6 -1.62196 248.395 -1.62096 238.316 7.56604L8.59797 216.885C0.52197 224.245 -2.14703 235.585 1.79897 245.774C5.74597 255.963 15.356 262.546 26.283 262.546H62.972V472.267C62.972 480.582 69.713 487.324 78.029 487.324H203.942C212.257 487.324 218.999 480.583 218.999 472.267V344.931H293V472.268C293 480.583 299.741 487.325 308.057 487.325H433.965C442.28 487.325 449.022 480.584 449.021 472.268V262.547H485.718C496.644 262.547 506.255 255.963 510.202 245.775C514.147 235.585 511.479 224.245 503.401 216.884ZM433.965 232.433C425.65 232.433 418.908 239.174 418.908 247.49V457.211H323.115V329.874C323.115 321.559 316.373 314.817 308.058 314.817H203.942C195.627 314.817 188.885 321.558 188.885 329.874V457.211H93.085V247.49C93.085 239.175 86.344 232.433 78.028 232.433H36.245L256.001 32.193L330.837 100.384C335.245 104.4 341.608 105.435 347.061 103.028C352.515 100.618 356.034 95.216 356.034 89.254V61.847H430.036V184.123C430.036 188.36 431.82 192.399 434.952 195.253L475.755 232.433H433.965Z" fill="#9B9B9B"/>
</svg>
