<svg width="428" height="428" viewBox="0 0 428 428" fill="none" xmlns="http://www.w3.org/2000/svg">
<g clip-path="url(#clip0)">
<path d="M93.5498 156.5C62.0498 156.5 36.5498 182 36.5498 213.5C36.5498 245 62.0498 270.5 93.5498 270.5C125.05 270.5 150.55 245 150.55 213.5C150.45 182.1 124.95 156.6 93.5498 156.5ZM93.5498 250.5C73.1498 250.5 56.5498 234 56.5498 213.5C56.5498 193.1 73.0498 176.5 93.5498 176.5C113.95 176.5 130.55 193 130.55 213.5C130.45 233.9 113.95 250.4 93.5498 250.5Z" fill="#9B9B9B"/>
<path d="M380.55 172.5H177.05C171.55 172.5 167.05 177 167.05 182.5C167.05 188 171.55 192.5 177.05 192.5H380.55C386.05 192.5 390.55 188 390.55 182.5C390.55 177 386.05 172.5 380.55 172.5Z" fill="#9B9B9B"/>
<path d="M286.65 234.5H177.05C171.55 234.5 167.05 239 167.05 244.5C167.05 250 171.45 254.5 177.05 254.5H286.65C292.15 254.5 296.65 250 296.65 244.5C296.65 239 292.15 234.5 286.65 234.5Z" fill="#9B9B9B"/>
<path d="M93.5498 0C62.0498 0 36.5498 25.5 36.5498 57C36.5498 88.5 62.0498 114 93.5498 114C125.05 114 150.55 88.5 150.55 57C150.45 25.5 124.95 0 93.5498 0ZM93.5498 93.9C73.1498 93.9 56.5498 77.4 56.5498 56.9C56.5498 36.4 73.0498 19.9 93.5498 19.9C113.95 19.9 130.55 36.4 130.55 56.9C130.45 77.4 113.95 93.9 93.5498 93.9Z" fill="#9B9B9B"/>
<path d="M380.55 15.5H177.05C171.55 15.5 167.05 20 167.05 25.5C167.05 31 171.55 35.5 177.05 35.5H380.55C386.05 35.5 390.55 31 390.55 25.5C390.55 20 386.05 15.5 380.55 15.5Z" fill="#9B9B9B"/>
<path d="M286.65 78.5H177.05C171.55 78.5 167.05 83 167.05 88.5C167.05 94 171.45 98.5 177.05 98.5H286.65C292.15 98.5 296.65 94 296.65 88.5C296.65 83 292.15 78.5 286.65 78.5Z" fill="#9B9B9B"/>
<path d="M93.5498 313.1C62.0498 313.1 36.5498 338.6 36.5498 370.1C36.5498 401.6 62.0498 427.1 93.5498 427.1C125.05 427.1 150.55 401.6 150.55 370.1C150.45 338.6 124.95 313.1 93.5498 313.1ZM93.5498 407C73.1498 407 56.5498 390.5 56.5498 370C56.5498 349.6 73.0498 333 93.5498 333C113.95 333 130.55 349.5 130.55 370C130.45 390.5 113.95 407 93.5498 407Z" fill="#9B9B9B"/>
<path d="M380.55 328.5H177.05C171.55 328.5 167.05 333 167.05 338.5C167.05 344 171.55 348.5 177.05 348.5H380.55C386.05 348.5 390.55 344 390.55 338.5C390.55 333 386.05 328.5 380.55 328.5Z" fill="#9B9B9B"/>
<path d="M286.65 391.5H177.05C171.55 391.5 167.05 396 167.05 401.5C167.05 407 171.55 411.5 177.05 411.5H286.65C292.15 411.5 296.65 407 296.65 401.5C296.65 396 292.15 391.5 286.65 391.5Z" fill="#9B9B9B"/>
</g>
<defs>
<clipPath id="clip0">
<rect width="427.1" height="427.1" fill="white"/>
</clipPath>
</defs>
</svg>
