<svg width="491" height="491" viewBox="0 0 491 491" fill="none" xmlns="http://www.w3.org/2000/svg">
<g clip-path="url(#clip0)">
<path d="M437.333 0H202.667C173.27 0 149.334 23.936 149.334 53.333V181.333C149.334 187.221 154.113 192 160.001 192C165.889 192 170.668 187.221 170.668 181.333V53.333C170.668 35.69 185.025 21.333 202.668 21.333H437.335C454.978 21.333 469.335 35.69 469.335 53.333V437.333C469.335 454.976 454.978 469.333 437.335 469.333H202.667C185.024 469.333 170.667 454.976 170.667 437.333V309.333C170.667 303.445 165.888 298.666 160 298.666C154.112 298.666 149.333 303.445 149.333 309.333V437.333C149.333 466.73 173.269 490.666 202.666 490.666H437.333C466.73 490.666 490.666 466.73 490.666 437.333V53.333C490.667 23.936 466.731 0 437.333 0Z" fill="#9B9B9B"/>
<path d="M352 234.667H10.667C4.779 234.667 0 239.445 0 245.333C0 251.221 4.779 256 10.667 256H352C357.888 256 362.667 251.221 362.667 245.333C362.667 239.445 357.888 234.667 352 234.667Z" fill="#9B9B9B"/>
<path d="M359.531 237.824L295.531 173.824C291.371 169.664 284.608 169.664 280.448 173.824C276.288 177.984 276.288 184.747 280.448 188.907L336.896 245.355L280.448 301.803C276.288 305.963 276.288 312.726 280.448 316.886C282.539 318.955 285.269 320.001 288 320.001C290.731 320.001 293.461 318.956 295.531 316.908L359.531 252.908C363.691 248.747 363.691 241.984 359.531 237.824Z" fill="#9B9B9B"/>
</g>
<defs>
<clipPath id="clip0">
<rect width="490.667" height="490.667" fill="white"/>
</clipPath>
</defs>
</svg>
