<svg width="398" height="398" viewBox="0 0 398 398" fill="none" xmlns="http://www.w3.org/2000/svg">
<g clip-path="url(#clip0)">
<path d="M284.2 178L226.2 144.4L168.6 111.2C163 108 156.6 107.2 151 108.8C145.4 110.4 140.2 114 137 119.6C135.8 121.2 135.4 123.2 134.6 125.2C134.2 126.4 134.2 128 133.8 129.6C133.8 130 133.8 130.8 133.8 131.2V199.2V267.2C133.8 273.6 136.6 279.6 140.6 283.6C145 288 150.6 290.4 157 290.4C160.6 290.4 168.2 287.2 170.2 286L227 253.2H227.4L227.8 252.8L286.6 218.8C292.2 215.6 295.8 210.4 297.4 204.4C297.8 203.2 297.8 201.6 297.8 200C297.8 186.8 284.2 178 284.2 178ZM276.2 201.6L218.2 235.2C217.8 235.2 217.4 235.6 217.4 235.6L160.6 268.4C160.2 268.8 158.2 269.6 157.4 269.6C156.6 269.6 155.8 269.2 155 268.8C154.6 268.4 154.2 267.2 154.2 266.4V198.8V131.2V130.8C154.2 130.4 154.2 130.4 154.2 130C154.2 130 154.2 129.6 154.6 129.6C154.6 129.6 155 129.2 155 128.8C155.4 128.4 156.2 128 156.6 127.6C157.4 127.6 158.2 127.6 158.6 127.6C159 128 159.4 128 159.8 128.4L216.6 161.2C217 161.6 217.4 161.6 217.4 161.6H217.8L275.8 195.2C276.6 195.6 278.2 196.8 278.2 198C278.2 199.6 277 201.2 276.2 201.6Z" fill="#9B9B9B"/>
<path d="M339 58.4C300.6 19.6 249.8 0 199 0C148.2 0 97.4002 19.2 58.6002 58C19.8002 97.2 0.200195 148 0.200195 198.8C0.200195 249.6 19.4002 300.4 58.2002 339.2C97.0002 378 147.8 397.2 198.6 397.2C249.4 397.2 300.2 378 339 339.2C377.8 300.4 397 249.6 397 198.8C397 148 377.8 97.2 339 58.4ZM325 324.8C290.2 359.6 244.6 377.2 199 377.2C153.4 377.2 107.8 359.6 73.0002 324.8C37.8002 290 20.6002 244.4 20.6002 198.8C20.6002 153.2 38.2002 107.6 73.0002 72.8C107.8 38 153.4 20.4 199 20.4C244.6 20.4 290.2 38 325 72.8C359.8 107.6 377.4 153.2 377.4 198.8C377.4 244.4 360.2 290 325 324.8Z" fill="#9B9B9B"/>
</g>
<defs>
<clipPath id="clip0">
<rect width="397.2" height="397.2" fill="white"/>
</clipPath>
</defs>
</svg>
