<svg width="432" height="368" viewBox="0 0 432 368" fill="none" xmlns="http://www.w3.org/2000/svg">
<path d="M424 352H400V24C400 10.8 389.2 0 376 0H312C298.8 0 288 10.8 288 24V352H272V136C272 122.8 261.2 112 248 112H184C170.8 112 160 122.8 160 136V352H144V248C144 234.8 133.2 224 120 224H56C42.8 224 32 234.8 32 248V352H8C3.6 352 0 355.6 0 360C0 364.4 3.6 368 8 368H424C428.4 368 432 364.4 432 360C432 355.6 428.4 352 424 352ZM128 352H48V248C48 243.6 51.6 240 56 240H120C124.4 240 128 243.6 128 248V352ZM256 352H176V136C176 131.6 179.6 128 184 128H248C252.4 128 256 131.6 256 136V352ZM384 352H304V24C304 19.6 307.6 16 312 16H376C380.4 16 384 19.6 384 24V352Z" fill="#9B9B9B"/>
</svg>
